# xmcd
#
# Track frame offsets:
#	151
#	25389
#	48609
#	86955
#	107911
#	144874
#	180718
#	212356
#	241766
#	267819
#	274897
#	291667
#
# Disc length: 4122 seconds
#
# Revision: 1
# Processed by: cddbd v1.5.1PL0 Copyright (c) Steve Scherf et al.
# Submitted via: CDex 1.50Beta5
#
DISCID=b510180c
DTITLE=Alice Blue - 王子さまLv1.5  Blue Disc
DYEAR=1900
DGENRE=
TTITLE0=1ヵ月後のある日
TTITLE1=アーヴィング家の人々
TTITLE2=ダンジョンへGo!
TTITLE3=親心子心
TTITLE4=おとん、ピュ〜!
TTITLE5=仕返し
TTITLE6=二人の距離(カナン×セレスト)
TTITLE7=二人の距離(セレスト×カナン)
TTITLE8=どこかの森で……
TTITLE9=白鳳の罠
TTITLE10=愛のお仕置き(白鳳×アックス)
TTITLE11=愛のお仕置き(アックス×白鳳)
EXTD=
EXTT0=
EXTT1=
EXTT2=
EXTT3=
EXTT4=
EXTT5=
EXTT6=
EXTT7=
EXTT8=
EXTT9=
EXTT10=
EXTT11=
PLAYORDER=
